# xmcd
#
# Track frame offsets: 
#        150
#        11166
#        19867
#        32335
#        44034
#        56986
#        66979
#        76008
#        88643
#        100997
#        112486
#        128047
#        142311
#        158300
#        168445
#
# Disc length: 2457 seconds
#
# Revision: 0
# Processed by: cddbd v1.5.2PL0 Copyright (c) Steve Scherf et al.
# Submitted via: ExactAudioCopy v0.99pb5
#
DISCID=ce09970f
DTITLE=Various Artist - Country Legends [CD3]
DYEAR=2009
DGENRE=Country
TTITLE0=It's Only Make Believe - Conway Twitty
TTITLE1=I Love You So Much It Hurts - Patsy Cline
TTITLE2=I Love You Because - Don Gibson
TTITLE3=Ease That Want In Me - Billie Jo Spears
TTITLE4=Make The World Go Away - Faron Young
TTITLE5=Excuse Me (I Think I've Got A Headache) - Marie O'Brien
TTITLE6=I'd Like To Be - Jim Reeves
TTITLE7=All The Time - Anne Murray
TTITLE8=I Still Miss Someone - Johnny Cash
TTITLE9=Too Many Rivers - Tina Travis
TTITLE10=Wedding Bells - Hank Williams
TTITLE11=Have You Been Lonely? - Jo Ann Houston
TTITLE12=Today I Started Loving You Again - Merle Haggard
TTITLE13=I'm Beginning To Forget You - Cindy Morgan
TTITLE14=Always On My Mind - Willie Nelson
EXTD=
EXTT0=
EXTT1=
EXTT2=
EXTT3=
EXTT4=
EXTT5=
EXTT6=
EXTT7=
EXTT8=
EXTT9=
EXTT10=
EXTT11=
EXTT12=
EXTT13=
EXTT14=
PLAYORDER=
